<svg width="100" height="28" viewBox="0 0 100 28" fill="none" xmlns="http://www.w3.org/2000/svg">
<g clip-path="url(#clip0)">
<path d="M19.2598 11.5748H10.8585C10.8066 11.5744 10.7552 11.5843 10.7072 11.604C10.6592 11.6237 10.6155 11.6527 10.5789 11.6894C10.5422 11.7261 10.5132 11.7697 10.4935 11.8177C10.4738 11.8657 10.4638 11.9171 10.4642 11.969V16.0753C10.4642 16.1271 10.4744 16.1783 10.4942 16.2262C10.514 16.274 10.5431 16.3175 10.5797 16.3541C10.6163 16.3907 10.6598 16.4197 10.7076 16.4395C10.7554 16.4593 10.8067 16.4695 10.8585 16.4695H14.1346V21.5753C14.1346 21.5753 13.3989 21.8252 11.3582 21.8252C8.95663 21.8252 5.60275 20.9479 5.60275 13.5738C5.60275 6.19968 9.10101 5.22517 12.3799 5.22517C15.2202 5.22517 16.4418 5.72492 17.2192 5.96646C17.2763 5.97745 17.3351 5.97575 17.3915 5.96149C17.4479 5.94723 17.5004 5.92076 17.5455 5.88394C17.5905 5.84713 17.6269 5.80087 17.6521 5.74845C17.6772 5.69602 17.6906 5.6387 17.6912 5.58054L18.6268 1.61031C18.6286 1.55104 18.6159 1.49222 18.5897 1.43899C18.5636 1.38576 18.5249 1.33973 18.4769 1.3049C18.1604 1.07724 16.2336 0 11.3638 0C5.75546 0 0 2.38769 0 13.8597C0 25.3318 6.58837 27.0448 12.1412 27.0448C16.7361 27.0448 19.5264 25.0791 19.5264 25.0791C19.5705 25.044 19.6053 24.9985 19.6276 24.9467C19.6499 24.8948 19.659 24.8383 19.6541 24.7821V11.969C19.6541 11.8645 19.6125 11.7642 19.5386 11.6902C19.4647 11.6163 19.3644 11.5748 19.2598 11.5748Z" fill="#F5F5F9"/>
<path d="M62.5687 1.3882C62.5709 1.33656 62.5629 1.28498 62.5451 1.23645C62.5273 1.18792 62.5 1.1434 62.4649 1.10546C62.4298 1.06751 62.3875 1.0369 62.3405 1.01538C62.2935 0.993856 62.2427 0.981856 62.1911 0.980072H57.4712C57.4163 0.976505 57.3613 0.984551 57.3097 1.00369C57.2581 1.02282 57.2111 1.05262 57.1718 1.09113C57.1325 1.12964 57.1018 1.176 57.0816 1.22718C57.0615 1.27837 57.0523 1.33324 57.0548 1.3882V10.5197H49.6807V1.3882C49.681 1.33656 49.6712 1.28536 49.6517 1.23754C49.6322 1.18972 49.6034 1.14624 49.567 1.10959C49.5306 1.07295 49.4873 1.04386 49.4397 1.02402C49.392 1.00417 49.3408 0.993952 49.2892 0.993953H44.5693C44.5168 0.99246 44.4644 1.00157 44.4155 1.02075C44.3665 1.03993 44.3219 1.06878 44.2843 1.10558C44.2467 1.14237 44.217 1.18636 44.1968 1.23492C44.1766 1.28348 44.1664 1.33561 44.1668 1.3882V26.1342C44.1664 26.1859 44.1762 26.2373 44.1957 26.2852C44.2152 26.3332 44.2439 26.3769 44.2803 26.4138C44.3166 26.4506 44.3599 26.48 44.4076 26.5001C44.4553 26.5203 44.5065 26.5308 44.5582 26.5312H49.2781C49.3299 26.5308 49.3811 26.5203 49.4288 26.5001C49.4764 26.48 49.5197 26.4506 49.5561 26.4138C49.5924 26.3769 49.6211 26.3332 49.6406 26.2852C49.6601 26.2373 49.6699 26.1859 49.6696 26.1342V15.5478H57.0548V26.1397C57.0544 26.1915 57.0642 26.2428 57.0837 26.2908C57.1032 26.3388 57.1319 26.3824 57.1683 26.4193C57.2046 26.4562 57.2479 26.4855 57.2956 26.5057C57.3433 26.5258 57.3945 26.5364 57.4462 26.5367H62.1911C62.2954 26.5353 62.395 26.4928 62.4682 26.4185C62.5415 26.3442 62.5826 26.2441 62.5826 26.1397L62.5687 1.3882Z" fill="#F5F5F9"/>
<path d="M28.1887 4.62273C28.1827 4.02004 27.9985 3.43261 27.6592 2.93441C27.32 2.43621 26.841 2.04952 26.2824 1.82305C25.7239 1.59657 25.1108 1.54043 24.5204 1.6617C23.93 1.78296 23.3887 2.07621 22.9646 2.50452C22.5405 2.93282 22.2527 3.47703 22.1373 4.0686C22.0219 4.66018 22.0841 5.27267 22.3162 5.82894C22.5482 6.38522 22.9396 6.8604 23.4412 7.19465C23.9427 7.5289 24.532 7.70727 25.1347 7.7073C25.5383 7.70732 25.938 7.62733 26.3105 7.47194C26.683 7.31656 27.0211 7.08886 27.3051 6.80203C27.5891 6.51519 27.8134 6.1749 27.9651 5.80084C28.1167 5.42678 28.1928 5.02636 28.1887 4.62273Z" fill="#F5F5F9"/>
<path d="M27.85 20.9118V9.48141C27.85 9.37732 27.8089 9.27746 27.7355 9.20361C27.6622 9.12975 27.5626 9.08789 27.4586 9.08716H22.7387C22.6284 9.09801 22.526 9.14895 22.4507 9.23032C22.3755 9.31168 22.3328 9.41782 22.3306 9.5286V25.9093C22.3306 26.3924 22.6304 26.534 23.0191 26.534H27.267C27.7334 26.534 27.8473 26.3063 27.8473 25.9038L27.85 20.9118Z" fill="#F5F5F9"/>
<path d="M80.5485 9.12598H75.8536C75.8022 9.12634 75.7514 9.13683 75.704 9.15684C75.6567 9.17685 75.6137 9.20599 75.5776 9.2426C75.5415 9.27921 75.513 9.32257 75.4937 9.3702C75.4743 9.41784 75.4646 9.46882 75.4649 9.52022V21.6558C74.6068 22.2192 73.604 22.522 72.5775 22.5276C70.8839 22.5276 70.4341 21.7613 70.4341 20.101V9.52022C70.4345 9.46882 70.4247 9.41784 70.4054 9.3702C70.386 9.32257 70.3575 9.27921 70.3214 9.2426C70.2853 9.20599 70.2424 9.17685 70.195 9.15684C70.1477 9.13683 70.0968 9.12634 70.0454 9.12598H65.2784C65.2269 9.12634 65.1761 9.13683 65.1288 9.15684C65.0814 9.17685 65.0384 9.20599 65.0024 9.2426C64.9663 9.27921 64.9377 9.32257 64.9184 9.3702C64.8991 9.41784 64.8893 9.46882 64.8897 9.52022V20.9034C64.8897 25.8287 67.6327 27.0337 71.4086 27.0337C74.5043 27.0337 77.003 25.3207 77.003 25.3207C77.0422 25.6604 77.0997 25.9977 77.1752 26.3313C77.2094 26.3934 77.2591 26.4458 77.3194 26.4832C77.3796 26.5206 77.4486 26.5419 77.5195 26.545H80.5513C80.6554 26.5443 80.7549 26.5025 80.8283 26.4286C80.9016 26.3547 80.9428 26.2549 80.9427 26.1508V9.52022C80.942 9.41589 80.9002 9.31603 80.8265 9.24225C80.7527 9.16847 80.6528 9.1267 80.5485 9.12598Z" fill="#F5F5F9"/>
<path d="M93.3839 8.56801C91.8107 8.55818 90.2635 8.96942 88.9028 9.75908V1.38827C88.9032 1.33662 88.8933 1.28542 88.8738 1.2376C88.8543 1.18979 88.8255 1.1463 88.7891 1.10966C88.7527 1.07301 88.7095 1.04393 88.6618 1.02408C88.6141 1.00423 88.563 0.994017 88.5113 0.994019H83.7665C83.7148 0.994017 83.6637 1.00423 83.616 1.02408C83.5684 1.04393 83.5251 1.07301 83.4887 1.10966C83.4523 1.1463 83.4235 1.18979 83.404 1.2376C83.3845 1.28542 83.3746 1.33662 83.375 1.38827V26.1342C83.3746 26.186 83.3845 26.2373 83.404 26.2853C83.4234 26.3333 83.4522 26.377 83.4885 26.4138C83.5249 26.4507 83.5681 26.48 83.6158 26.5002C83.6635 26.5203 83.7147 26.5309 83.7665 26.5312H87.0593C87.1303 26.5301 87.1997 26.5099 87.2602 26.4728C87.3208 26.4357 87.3703 26.383 87.4036 26.3202C87.4981 25.9453 87.5649 25.5639 87.6035 25.1791C87.6035 25.1791 89.5469 27.0171 93.2173 27.0171C97.5291 27.0171 100 24.8293 100 17.197C100 9.56473 96.0631 8.56801 93.3839 8.56801ZM91.532 22.5194C90.568 22.4947 89.6265 22.2232 88.7973 21.7309V13.882C89.5434 13.4553 90.3695 13.1869 91.2239 13.0935C92.9147 12.9436 94.5555 13.4545 94.5555 17.4858C94.5444 21.7475 93.8087 22.5888 91.532 22.5194Z" fill="#F5F5F9"/>
<path d="M41.4486 9.08442H37.9004V4.39788C37.9004 4.22019 37.8088 4.12024 37.6033 4.12024H32.7613C32.5725 4.12024 32.4837 4.20353 32.4837 4.384V9.2399C32.4837 9.2399 30.0599 9.82572 29.8961 9.87292C29.8152 9.89748 29.7445 9.94752 29.6945 10.0156C29.6445 10.0836 29.6178 10.166 29.6184 10.2505V13.3045C29.6203 13.403 29.6589 13.4972 29.7267 13.5687C29.7945 13.6401 29.8866 13.6835 29.9849 13.6905H32.4837V21.0146C32.4837 26.4563 36.3012 26.9894 38.8693 26.9894C39.8251 26.9602 40.7727 26.8043 41.6874 26.5257C41.7563 26.4963 41.8145 26.4464 41.8542 26.3829C41.894 26.3194 41.9132 26.2452 41.9095 26.1703V22.822C41.9088 22.7181 41.8674 22.6187 41.7942 22.545C41.721 22.4713 41.6219 22.4292 41.518 22.4278C41.3098 22.4278 40.7823 22.511 40.2381 22.511C38.4945 22.511 37.9032 21.7003 37.9032 20.6509V13.6905H41.4514C41.5032 13.6901 41.5544 13.6795 41.602 13.6594C41.6497 13.6392 41.693 13.6099 41.7294 13.573C41.7657 13.5362 41.7944 13.4925 41.8139 13.4445C41.8334 13.3965 41.8432 13.3452 41.8429 13.2934V9.48145C41.8432 9.42944 41.8333 9.37788 41.8136 9.32972C41.794 9.28157 41.765 9.23778 41.7284 9.20088C41.6917 9.16397 41.6481 9.13468 41.6001 9.1147C41.5521 9.09471 41.5006 9.08442 41.4486 9.08442Z" fill="#F5F5F9"/>
</g>
<defs>
<clipPath id="clip0">
<rect width="100" height="27.0448" fill="white"/>
</clipPath>
</defs>
</svg>
